<?xml version="1.0" encoding="UTF-8"?>
<svg version="1.1" xmlns="http://www.w3.org/2000/svg" width="1254" height="1254">
<path d="M0 0 C413.82 0 827.64 0 1254 0 C1254 413.82 1254 827.64 1254 1254 C840.18 1254 426.36 1254 0 1254 C0 840.18 0 426.36 0 0 Z " fill="#FCFCFC" transform="translate(0,0)"/>
<path d="M0 0 C413.82 0 827.64 0 1254 0 C1254 413.82 1254 827.64 1254 1254 C840.18 1254 426.36 1254 0 1254 C0 840.18 0 426.36 0 0 Z M516 71 C514.46328373 71.26030092 512.91979759 71.48048822 511.375 71.6875 C474.7606945 77.60976665 438.82084083 92.26588078 405 107 C405 107.66 405 108.32 405 109 C404.12561279 109.11230957 403.25122559 109.22461914 402.3503418 109.34033203 C398.96729685 110.00643911 396.46752463 111.0151519 393.39453125 112.5546875 C392.3382251 113.0813501 391.28191895 113.6080127 390.19360352 114.15063477 C389.07783936 114.71967529 387.9620752 115.28871582 386.8125 115.875 C385.07407837 116.75466431 385.07407837 116.75466431 383.30053711 117.65209961 C352.4304495 133.41441453 323.27059261 152.63626726 296 174 C294.74123047 174.98226562 294.74123047 174.98226562 293.45703125 175.984375 C282.60851455 184.54992489 272.20117621 193.67769435 262 203 C261.52272461 203.4321582 261.04544922 203.86431641 260.55371094 204.30957031 C249.48664756 214.3313718 238.35402697 224.57430474 228.71875 236.00390625 C226.92133774 238.09135549 225.04937691 240.09957006 223.16577148 242.10913086 C217.2037057 248.4927257 211.78338778 255.1850959 206.46875 262.11181641 C204.99453331 264.00702782 203.48714899 265.87052634 201.96875 267.73046875 C184.61673141 289.18607644 169.44210873 312.93006018 156 337 C155.45021484 337.98291016 154.90042969 338.96582031 154.33398438 339.97851562 C148.04251665 351.28605727 142.01348546 362.66373785 136.640625 374.4375 C135.24769849 377.46214042 133.78289546 380.4200208 132.25 383.375 C130.14468421 387.52948982 128.56128891 391.77195888 127.0234375 396.1640625 C125.97547321 399.06796354 124.82260631 401.90473151 123.625 404.75 C116.08716521 422.68405343 109.92728867 440.75646019 104.3125 459.375 C103.93182373 460.63449463 103.55114746 461.89398926 103.15893555 463.19165039 C100.11137305 473.38577715 97.1984082 483.41406087 96 494 C95.67 494.33 95.34 494.66 95 495 C94.52101359 497.60239116 94.09037033 500.19805925 93.6875 502.8125 C92.91793062 507.68227352 92.13829756 512.53260961 91.0546875 517.34375 C88.48947429 528.79932479 87.05033733 540.2765407 85.8125 551.9375 C85.72791534 552.73314362 85.64333069 553.52878723 85.55618286 554.34854126 C85.31083119 556.67858622 85.07001024 559.00903482 84.83203125 561.33984375 C84.76240173 562.01862579 84.69277222 562.69740784 84.62103271 563.39675903 C84.40212968 565.5969017 84.19825803 567.79789781 84 570 C83.91109497 570.9715654 83.82218994 571.9431308 83.73059082 572.94413757 C83.05092916 580.94328198 82.85366542 588.87678454 82.8671875 596.90234375 C82.86623077 598.1825087 82.86527405 599.46267365 82.86428833 600.78163147 C82.86282847 603.46991202 82.86490964 606.15815896 82.86962891 608.84643555 C82.87531931 612.24919539 82.87204049 615.65187619 82.86605644 619.05463314 C82.86152148 622.35804258 82.86472055 625.66143209 82.8671875 628.96484375 C82.86516327 630.1642308 82.86313904 631.36361786 82.86105347 632.59934998 C82.69740937 646.93585596 82.69740937 646.93585596 85 661 C85.16460225 662.65720242 85.29277374 664.31822353 85.39453125 665.98046875 C86.64492706 684.5951097 88.82344533 703.04378133 93.35546875 721.171875 C94.06154922 724.27007051 94.50856119 727.35196212 94.9375 730.5 C95.75372006 736.15912573 97.24306167 741.36870565 99.01171875 746.796875 C99.93015803 749.77363472 100.61832977 752.70168174 101.25 755.75 C103.43985873 765.61626568 106.81433799 775.15640801 109.94921875 784.75341797 C110.96551733 787.89345946 111.95683839 791.04007237 112.9375 794.19140625 C113.24333008 795.17052979 113.54916016 796.14965332 113.86425781 797.15844727 C114.43510658 798.98978926 115.00243681 800.82223356 115.56542969 802.65600586 C117.10968579 807.57986551 118.91429214 812.25199537 121.06738281 816.94140625 C122.33896849 819.74821526 123.42149534 822.61427132 124.5 825.5 C126.18889827 829.93850703 127.94263027 834.31340979 129.91796875 838.63183594 C130.64891135 840.2315975 131.37469937 841.8337228 132.09570312 843.43798828 C149.35359022 881.75646824 170.7683456 918.3276436 196.74365234 951.39648438 C198.05156927 953.06581947 199.34862375 954.74320402 200.64453125 956.421875 C213.39724099 972.88179447 227.1612578 988.38915657 242 1003 C244.91324522 1005.90335305 247.81278946 1008.81992048 250.70703125 1011.7421875 C252.0754682 1013.11984395 253.44395897 1014.49744694 254.8125 1015.875 C255.82280273 1016.89787109 255.82280273 1016.89787109 256.85351562 1017.94140625 C261.3994155 1022.50905685 266.1027568 1026.81301454 271 1031 C272.00921786 1031.8774854 273.01834086 1032.75507992 274.02734375 1033.6328125 C281.99163008 1040.45323489 290.22286335 1046.86211245 298.59741211 1053.16967773 C300.38728788 1054.53322805 302.16484092 1055.91298342 303.93579102 1057.30102539 C311.69211292 1063.37570422 319.67264695 1068.95394153 327.9375 1074.3125 C328.56484039 1074.72108246 329.19218079 1075.12966492 329.83853149 1075.55062866 C345.70200226 1085.87406153 361.92129207 1095.41791057 378.5625 1104.4375 C379.60881592 1105.00509033 380.65513184 1105.57268066 381.7331543 1106.1574707 C389.03099922 1110.06556519 396.46509849 1113.5760476 404 1117 C405.54755697 1117.72756554 407.0933894 1118.4588217 408.63671875 1119.1953125 C420.17107291 1124.69482634 431.7873506 1129.33241327 443.8515625 1133.53515625 C446.44980707 1134.44395659 449.02269789 1135.38753699 451.59765625 1136.36328125 C457.29460537 1138.51116239 463.05185381 1140.4870616 468.81665039 1142.44384766 C470.14350946 1142.89668396 471.46873192 1143.35434533 472.79223633 1143.81689453 C480.83030849 1146.62358706 488.42723488 1148.78313777 497 1149 C497 1149.66 497 1150.32 497 1151 C497.89307861 1151.17390259 497.89307861 1151.17390259 498.80419922 1151.35131836 C501.49506396 1151.87703798 504.1850318 1152.40721295 506.875 1152.9375 C508.28072266 1153.21110352 508.28072266 1153.21110352 509.71484375 1153.49023438 C510.61074219 1153.66748047 511.50664062 1153.84472656 512.4296875 1154.02734375 C513.67081299 1154.27085571 513.67081299 1154.27085571 514.93701172 1154.51928711 C517 1155 517 1155 519 1156 C520.61953551 1156.30179536 522.24618575 1156.56564005 523.875 1156.8125 C527.60321588 1157.40185497 531.29596455 1158.04578002 534.9765625 1158.87890625 C551.39080899 1162.53464858 568.09288247 1164.14243447 584.80821228 1165.78346252 C586.37172533 1165.93792966 587.93445868 1166.10037534 589.49659729 1166.26817322 C596.74353354 1167.00361956 603.92603862 1167.16101244 611.20703125 1167.16796875 C612.44885666 1167.17129715 613.69068207 1167.17462555 614.97013855 1167.17805481 C617.58970778 1167.18309345 620.20928336 1167.18546409 622.82885742 1167.18530273 C626.76297092 1167.18747268 630.69679594 1167.20561615 634.63085938 1167.22460938 C649.53929137 1167.259033 664.19352629 1166.76168137 679 1165 C680.23666916 1164.8555394 680.23666916 1164.8555394 681.49832153 1164.7081604 C686.27480931 1164.14284225 691.04314748 1163.5293059 695.80859375 1162.87768555 C698.16039714 1162.55768363 700.5136437 1162.25026963 702.8671875 1161.94335938 C710.46346142 1160.93011002 717.84061893 1159.7106832 725.25488281 1157.72094727 C729.89677266 1156.50185257 734.60732635 1155.62512087 739.3125 1154.6875 C764.27194244 1149.57172295 788.26328617 1142.21537603 812 1133 C813.08394043 1132.58137695 814.16788086 1132.16275391 815.28466797 1131.73144531 C818.39424629 1130.52889194 821.50223113 1129.32247006 824.60861206 1128.11169434 C826.45652898 1127.39193193 828.30552278 1126.67493626 830.15454102 1125.95800781 C835.65240543 1123.80378638 841.03674837 1121.60652044 846.27514648 1118.87817383 C848.46330376 1117.76411838 850.72250398 1116.836785 852.98486328 1115.88525391 C913.46436998 1089.31647619 966.98833811 1048.00087429 1013.5 1001.625 C1014.01882751 1001.10885132 1014.53765503 1000.59270264 1015.07220459 1000.06091309 C1020.93411479 994.22199441 1026.65348776 988.3215168 1032 982 C1032.85722656 981.01257813 1033.71445313 980.02515625 1034.59765625 979.0078125 C1047.18759768 964.28296816 1058.8716804 948.85394226 1070 933 C1070.42700195 932.39188477 1070.85400391 931.78376953 1071.29394531 931.15722656 C1091.20288561 902.56715542 1108.83914528 871.19369949 1121.83203125 838.8359375 C1122.81626728 836.44612024 1123.85546646 834.09966175 1124.921875 831.74609375 C1126.98261387 827.13302845 1128.73472121 822.44218982 1130.4375 817.6875 C1132.36874821 812.34998824 1134.34469313 807.07582607 1136.625 801.875 C1142.46294665 788.08831817 1145.59062807 773.09902801 1149.31542969 758.64111328 C1150.52688893 753.96723095 1151.78423031 749.30588684 1153.04296875 744.64453125 C1153.35878906 743.44183594 1153.67460938 742.23914063 1154 741 C1154.33269897 739.78691162 1154.33269897 739.78691162 1154.67211914 738.54931641 C1156.88920849 730.16754914 1158.3265461 721.71934014 1159.67993164 713.16552734 C1160.0598263 710.76688166 1160.44820073 708.36972793 1160.83789062 705.97265625 C1163.0756172 692.09263609 1165.04698592 678.26579995 1165.65625 664.20703125 C1165.86342695 660.78826572 1166.41851442 657.48731214 1167.00488281 654.11401367 C1168.10589052 647.03288307 1168.28936991 640.12411892 1168.265625 632.96875 C1168.26753845 631.65757202 1168.2694519 630.34639404 1168.27142334 628.9954834 C1168.27434925 626.228874 1168.27017079 623.46239483 1168.26074219 620.69580078 C1168.24952643 617.24625455 1168.25600696 613.79702303 1168.26761723 610.3474884 C1168.33674058 586.13295179 1167.21133674 562.0272683 1164.0625 538 C1163.90587891 536.71351563 1163.74925781 535.42703125 1163.58789062 534.1015625 C1162.54695133 525.92334617 1160.99486291 517.99645332 1159 510 C1157.7780594 504.87269085 1156.78500288 499.77759666 1156 494.5625 C1153.19276589 475.94046608 1147.92336109 458.16397836 1141.81567383 440.37988281 C1139.78337291 434.45026013 1137.83182399 428.51418282 1136.0625 422.5 C1134.62798482 417.78265201 1132.97125701 413.3427287 1130.83203125 408.90234375 C1129.98036498 406.95510679 1129.45688854 405.07215107 1129 403 C1128.34 403 1127.68 403 1127 403 C1126.814375 401.845 1126.62875 400.69 1126.4375 399.5 C1124.71935812 391.92615007 1121.26299757 385.00516708 1118 378 C1117.56864746 377.07026367 1117.13729492 376.14052734 1116.69287109 375.18261719 C1102.33734103 344.38857815 1085.7926619 314.65315936 1066 287 C1065.4342627 286.20899902 1064.86852539 285.41799805 1064.28564453 284.60302734 C1045.89319623 259.01777221 1025.34579865 235.32299681 1003.125 213 C1002.09101074 211.95900146 1002.09101074 211.95900146 1001.03613281 210.89697266 C997.07843451 206.95166003 993.01332213 203.19082128 988.78173828 199.54101562 C986.60291909 197.6565669 984.49103799 195.70444964 982.375 193.75 C976.79800432 188.72392335 970.92824973 184.13169581 964.99072266 179.54492188 C962.88481927 177.91061275 960.79127483 176.26136664 958.69921875 174.609375 C926.3301211 149.11265972 890.77730181 126.24686376 852.86987305 109.85620117 C850.46430447 108.75470894 848.26460115 107.36408022 846 106 C843.93332215 105.14602301 841.84833332 104.33543679 839.75 103.5625 C836.0083862 102.15782711 832.31499948 100.73995641 828.6875 99.0625 C792.72890554 82.82939351 753.71508242 73.84662554 715.09863281 66.76220703 C711.94985948 66.18235698 708.81341515 65.55929235 705.6796875 64.90234375 C676.5865709 59.01752807 535.85678217 51.14321783 516 71 Z " fill="#FCFCFC" transform="translate(0,0)"/>
<path d="M0 0 C1.09123169 -0.00167175 2.18246338 -0.00334351 3.3067627 -0.00506592 C31.92015927 -0.00767825 59.92888208 2.43658823 88.04992676 7.86651611 C91.29721831 8.48526825 94.55167923 9.06450505 97.8046875 9.65234375 C114.50725537 12.739832 130.86014595 16.62112811 147.1875 21.3125 C148.05888611 21.56176239 148.93027222 21.81102478 149.82806396 22.06784058 C168.0604572 27.31142635 186.26557617 33.25015193 203.5390625 41.1484375 C207.55953091 42.90350266 211.65319512 44.48239629 215.74755859 46.05639648 C219.43230445 47.49869472 222.68648861 49.20634531 226.0625 51.25 C227.72670856 51.97312612 229.3919349 52.69422759 231.06689453 53.39208984 C247.77207399 60.57364118 263.52281799 69.87426014 279.0625 79.25 C279.83883789 79.71825195 280.61517578 80.18650391 281.41503906 80.66894531 C299.13724513 91.42111292 315.67578668 103.57329724 332.0625 116.25 C333.36971879 117.25400114 334.67700298 118.25791714 335.984375 119.26171875 C353.78634755 133.00480216 370.1977862 148.3334587 386.125 164.1875 C386.81513184 164.87295898 387.50526367 165.55841797 388.21630859 166.26464844 C392.70143852 170.76396836 396.9216346 175.43403961 401.0625 180.25 C402.10809801 181.44122626 403.15494171 182.63136045 404.203125 183.8203125 C410.95395381 191.5209959 417.47711405 199.34713063 423.703125 207.47851562 C425.05320178 209.23788293 426.41690336 210.98606223 427.78125 212.734375 C500.0625 306.27481618 500.0625 306.27481618 500.0625 344.25 C500.7225 344.25 501.3825 344.25 502.0625 344.25 C502.31644531 345.0234375 502.57039063 345.796875 502.83203125 346.59375 C505.04467985 353.28970532 507.25976099 359.96566629 509.99609375 366.46875 C512.49613425 372.46106498 514.33916792 378.5046803 516.06640625 384.76171875 C516.95222321 387.86381499 517.93936374 390.89189788 519 393.9375 C522.89867152 405.41777779 525.92765001 417.31673597 528.0625 429.25 C528.41245092 431.09078231 528.76244599 432.93155631 529.11303711 434.7722168 C530.46178708 441.8835755 531.74196952 449.0061536 532.97241211 456.13891602 C533.60917075 459.80084312 534.30422779 463.44237669 535.05859375 467.08203125 C540.76703448 495.44305749 541.42041863 524.79679257 541.32324219 553.64013672 C541.31166699 557.10763079 541.31856986 560.57482108 541.33038712 564.04230499 C541.33941033 567.43447681 541.33307534 570.82656963 541.328125 574.21875 C541.33217346 575.43872681 541.33622192 576.65870361 541.34039307 577.91564941 C541.30279086 584.87458049 540.73722621 591.50132911 539.53872681 598.35899353 C538.7764339 602.98660728 538.50648838 607.63739004 538.1875 612.3125 C536.40523561 635.72879845 533.12155115 659.52855818 527.0625 682.25 C526.62387822 683.942418 526.18649702 685.63515775 525.75 687.328125 C513.40191392 735.12610747 513.40191392 735.12610747 507.484375 748.87890625 C505.74040565 753.01364676 504.11701919 757.18931876 502.5 761.375 C501.89848549 762.928404 501.29692431 764.48178993 500.6953125 766.03515625 C500.41333008 766.7636377 500.13134766 767.49211914 499.84082031 768.24267578 C490.03250318 793.53878102 477.87827506 817.91632991 464.0625 841.25 C463.48999512 842.22195313 462.91749023 843.19390625 462.32763672 844.1953125 C454.78219028 856.95780098 446.85814993 869.31374537 438.0625 881.25 C437.31871094 882.26578125 436.57492187 883.2815625 435.80859375 884.328125 C433.58684382 887.3231912 431.33123975 890.29055124 429.0625 893.25 C428.30114746 894.24918457 428.30114746 894.24918457 427.52441406 895.26855469 C419.3926476 905.92577344 410.99615174 916.25529642 402.0625 926.25 C401.20398437 927.22066406 400.34546875 928.19132813 399.4609375 929.19140625 C392.33455833 937.08507993 384.82004489 944.59654802 377.3125 952.125 C376.76879761 952.67138123 376.22509521 953.21776245 375.66491699 953.78070068 C369.64550069 959.82258258 363.58180937 965.74218237 357.0625 971.25 C355.96780933 972.19943734 354.87402918 973.1499257 353.78125 974.1015625 C341.21593382 984.95307478 328.51343535 995.55519514 314.85302734 1005.00976562 C312.99670873 1006.29557127 311.14865011 1007.59271147 309.30078125 1008.890625 C286.10502666 1025.10114545 261.73298344 1038.99013094 236.58398438 1051.92138672 C234.19536294 1053.17999224 231.85625333 1054.50246166 229.515625 1055.84765625 C225.71682603 1057.97484968 221.85901826 1059.63364655 217.79882812 1061.19580078 C214.73675088 1062.37549828 211.70514204 1063.61921931 208.671875 1064.87109375 C186.94447261 1073.79846442 186.94447261 1073.79846442 176.83203125 1077.27734375 C174.24139133 1078.18717357 171.72082156 1079.19272177 169.1875 1080.25 C156.67145472 1085.3212961 143.4585149 1088.57716484 130.375 1091.8125 C129.20318176 1092.10472946 129.20318176 1092.10472946 128.00769043 1092.40286255 C116.5170086 1095.26380243 105.01867869 1097.88145773 93.32714844 1099.79858398 C91.32101456 1100.19846988 89.33602041 1100.70135532 87.35693359 1101.21875 C83.01646934 1102.31669079 78.68069665 1102.94952192 74.2421875 1103.50390625 C73.42106476 1103.60968491 72.59994202 1103.71546356 71.75393677 1103.82444763 C70.02473098 1104.04601795 68.29522112 1104.26522687 66.56542969 1104.48217773 C63.9646183 1104.80909132 61.36511341 1105.14516831 58.765625 1105.48242188 C39.81390633 1107.91481228 21.16510044 1108.52601012 2.0625 1108.5625 C0.75314484 1108.56511841 -0.55621033 1108.56773682 -1.90524292 1108.57043457 C-23.1472679 1108.57497371 -43.93079893 1107.5660963 -64.95245361 1104.53503418 C-66.94499363 1104.24892398 -68.93873577 1103.97323584 -70.93310547 1103.70019531 C-91.59632402 1100.84165758 -91.59632402 1100.84165758 -98.9375 1098.25 C-101.10910297 1097.91729385 -101.10910297 1097.91729385 -103.1875 1097.8125 C-107.43563909 1097.41534509 -111.18091528 1096.31658391 -115.23046875 1095.015625 C-120.04800697 1093.65308894 -124.98989397 1092.97258851 -129.9375 1092.25 C-129.9375 1091.59 -129.9375 1090.93 -129.9375 1090.25 C-130.51765869 1090.24452148 -131.09781738 1090.23904297 -131.69555664 1090.23339844 C-140.58393229 1089.80770834 -148.54812245 1087.12250485 -156.91625977 1084.32226562 C-159.36268098 1083.5041198 -161.81436541 1082.70377126 -164.26757812 1081.90625 C-172.12108172 1079.33176072 -179.84428973 1076.62339536 -187.42797852 1073.31933594 C-190.06730716 1072.19468768 -192.73413016 1071.20935049 -195.4375 1070.25 C-203.96864806 1067.19351674 -212.17101229 1063.66189371 -220.25805664 1059.58178711 C-222.86724327 1058.28492032 -225.49426646 1057.03997924 -228.13671875 1055.8125 C-242.14941839 1049.28783275 -255.5962096 1042.04816239 -268.9375 1034.25 C-270.19892822 1033.52176025 -270.19892822 1033.52176025 -271.48583984 1032.77880859 C-293.01748022 1020.33783105 -313.49230763 1006.16374433 -333 990.75 C-333.87458862 990.05982788 -333.87458862 990.05982788 -334.7668457 989.35571289 C-343.21134546 982.67552894 -351.46264666 975.87845407 -359.38671875 968.58203125 C-361.53825151 966.61500972 -363.72041973 964.70446871 -365.9375 962.8125 C-371.2066778 958.23863639 -376.03995921 953.21342699 -380.9375 948.25 C-383.88223792 945.29036459 -386.84860574 942.35420789 -389.828125 939.4296875 C-396.83159224 932.53028367 -403.71351971 925.71677484 -409.78125 917.96875 C-411.85803458 915.35019553 -414.01591389 912.83486799 -416.21533203 910.32006836 C-422.65909012 902.94039695 -428.60918244 895.2705392 -434.39013672 887.36376953 C-435.97154477 885.20349327 -437.56556866 883.05290418 -439.16015625 880.90234375 C-446.94890692 870.33355812 -454.13556126 859.47765433 -460.9375 848.25 C-461.47987305 847.35603516 -462.02224609 846.46207031 -462.58105469 845.54101562 C-469.83195656 833.51615008 -476.61610669 821.28306764 -483.0625 808.8125 C-483.53944809 807.89093109 -483.53944809 807.89093109 -484.02603149 806.95074463 C-487.23402247 800.73555564 -490.3261967 794.51152756 -493.09667969 788.08911133 C-494.19182615 785.69371692 -495.57446153 783.50096067 -496.9375 781.25 C-497.60672238 779.55850091 -498.2310879 777.84865534 -498.8125 776.125 C-500.05765098 772.43441738 -501.53761602 768.96180129 -503.20703125 765.44921875 C-506.66955969 757.90639798 -509.17151578 750.06441332 -511.75 742.1875 C-512.27701381 740.59068375 -512.80419668 738.99392328 -513.33154297 737.3972168 C-516.48807932 727.81074611 -519.57615362 718.203444 -522.5625 708.5625 C-523.03973511 707.02613892 -523.03973511 707.02613892 -523.52661133 705.45874023 C-525.04234056 700.49206875 -526.35749098 695.55513437 -527.41967773 690.47314453 C-527.97635131 688.08320129 -528.68910898 685.77935373 -529.43359375 683.44140625 C-531.17701232 677.77063875 -532.10119103 672.0427041 -533 666.1875 C-534.26406593 657.96612044 -534.26406593 657.96612044 -535.9296875 649.8203125 C-537.27320059 643.99536852 -538.12566724 638.09805579 -539 632.1875 C-539.26550659 630.40363892 -539.26550659 630.40363892 -539.53637695 628.58374023 C-540.66241158 620.78105756 -541.46436325 613.0670791 -541.76171875 605.19140625 C-541.82912329 602.41728464 -541.82912329 602.41728464 -542.41398621 600.46611023 C-544.66751927 590.92657616 -544.09612661 580.38952876 -544.10546875 570.63671875 C-544.10879715 569.38405716 -544.11212555 568.13139557 -544.11555481 566.84077454 C-544.12058198 564.20464439 -544.12296445 561.56850798 -544.12280273 558.93237305 C-544.12497365 554.98540197 -544.14313261 551.03871816 -544.16210938 547.09179688 C-544.20963638 525.99426788 -543.0003219 505.15570505 -540.125 484.25 C-539.87496216 482.3935083 -539.87496216 482.3935083 -539.61987305 480.49951172 C-538.16023247 470.05710823 -536.18603129 459.75466249 -533.98828125 449.4453125 C-533.29441993 446.17229167 -532.73504683 442.94125959 -532.35546875 439.6171875 C-531.9375 436.25 -531.9375 436.25 -530.9375 435.25 C-530.4882851 432.91893889 -530.08029226 430.59062638 -529.6875 428.25 C-528.25924479 420.26689876 -526.13495365 412.6449415 -523.74560547 404.90429688 C-522.78841103 401.76030353 -521.86395686 398.60745644 -520.94140625 395.453125 C-520.59037842 394.25534424 -520.23935059 393.05756348 -519.87768555 391.82348633 C-519.18121656 389.44610549 -518.48601383 387.06835322 -517.79223633 384.69018555 C-515.34198414 376.37750057 -512.43142835 368.4119236 -509.1875 360.375 C-507.4847124 356.14910377 -505.80238243 351.9169375 -504.16796875 347.6640625 C-503.86922852 346.88788574 -503.57048828 346.11170898 -503.26269531 345.31201172 C-502.69281114 343.82774245 -502.12552547 342.34247139 -501.56152344 340.85595703 C-499.26205597 334.87321083 -496.63467519 329.06281628 -493.9375 323.25 C-493.53990479 322.38842285 -493.14230957 321.5268457 -492.73266602 320.63916016 C-475.35263244 283.18616222 -454.47222205 247.7778355 -429.29882812 215.02441406 C-427.97691547 213.30137583 -426.66672816 211.57003805 -425.359375 209.8359375 C-416.74582876 198.45381147 -407.49721631 187.71919301 -397.7578125 177.2890625 C-395.35389503 174.71194751 -393.01521277 172.08383505 -390.6875 169.4375 C-386.56008137 164.8347114 -382.23715513 160.44120123 -377.875 156.0625 C-377.2140332 155.39694092 -376.55306641 154.73138184 -375.87207031 154.0456543 C-371.96471556 150.15040711 -367.94695915 146.44217795 -363.77026367 142.83764648 C-361.34153147 140.7337374 -358.9851578 138.5553013 -356.625 136.375 C-351.2225248 131.45422698 -345.63512419 126.8229951 -339.9375 122.25 C-338.80551214 121.32610551 -337.67402513 120.4015971 -336.54296875 119.4765625 C-322.29746096 107.88138174 -307.3788011 97.19333949 -291.9375 87.25 C-290.65045166 86.41879639 -290.65045166 86.41879639 -289.33740234 85.57080078 C-274.56901761 76.07483403 -259.50793744 67.36061971 -243.9375 59.25 C-243.03547852 58.7770752 -242.13345703 58.30415039 -241.20410156 57.81689453 C-238.70462186 56.5115489 -236.19844931 55.22062145 -233.6875 53.9375 C-232.9548291 53.55803223 -232.2221582 53.17856445 -231.46728516 52.78759766 C-227.96277739 51.02990589 -225.93578657 50.25 -221.9375 50.25 C-221.9375 49.59 -221.9375 48.93 -221.9375 48.25 C-194.08146222 36.0516626 -165.73694797 25.2707851 -136.20800781 17.83056641 C-133.98203281 17.26138699 -131.76801462 16.65934469 -129.5546875 16.04296875 C-123.3400164 14.31667122 -117.35130667 12.93719357 -110.9375 12.25 C-108.60170373 11.59201469 -106.26859348 10.92445687 -103.9375 10.25 C-92.1715001 7.45784973 -80.22066794 5.98659104 -68.23193359 4.51513672 C-65.07410117 4.12642803 -61.91792202 3.72591735 -58.76171875 3.32421875 C-39.11088791 0.85712825 -19.80037565 0.01611249 0 0 Z M-80.9375 75.25 C-82.46552246 75.52650391 -82.46552246 75.52650391 -84.02441406 75.80859375 C-105.57111733 79.73479164 -126.52233537 85.49432536 -147.4375 91.9375 C-148.63600586 92.30584961 -149.83451172 92.67419922 -151.06933594 93.05371094 C-157.82875271 95.16829294 -164.4054244 97.5160536 -170.9375 100.25 C-172.3147008 100.8095875 -173.69228875 101.3682234 -175.0703125 101.92578125 C-179.36695797 103.68234165 -183.6535329 105.46277648 -187.9375 107.25 C-188.60587891 107.52714844 -189.27425781 107.80429688 -189.96289062 108.08984375 C-200.46094664 112.46490598 -210.50445134 117.52314548 -220.50195312 122.93945312 C-222.87137095 124.21441653 -225.25384042 125.4610431 -227.640625 126.703125 C-242.43166556 134.49897691 -256.18015124 143.78795283 -269.9375 153.25 C-270.7094873 153.78077148 -271.48147461 154.31154297 -272.27685547 154.85839844 C-288.51836803 166.09306932 -303.81587982 178.6567448 -318.40600586 191.95385742 C-319.9784672 193.38012793 -321.55816598 194.79851304 -323.14892578 196.2043457 C-329.66000753 201.97128405 -335.85292408 208.01111816 -341.98852539 214.1706543 C-343.62989796 215.81741404 -345.27658819 217.45872095 -346.92382812 219.09960938 C-352.47129066 224.64320837 -357.88106184 230.24924129 -362.9375 236.25 C-363.84975765 237.30642395 -364.76249477 238.36243411 -365.67578125 239.41796875 C-372.00912635 246.84691528 -378.10231313 254.42220798 -383.9375 262.25 C-384.42444336 262.90033203 -384.91138672 263.55066406 -385.41308594 264.22070312 C-399.86185245 283.60119373 -412.31453175 304.07327493 -423.9375 325.25 C-424.38577148 326.05469727 -424.83404297 326.85939453 -425.29589844 327.68847656 C-434.75336925 344.69187791 -442.64789451 362.67449539 -448.83984375 381.125 C-449.76452342 383.75753999 -450.76911933 386.31697455 -451.82421875 388.8984375 C-460.77629739 411.11999754 -466.54496735 434.74270988 -470.9375 458.25 C-471.25625061 459.85187409 -471.57667772 461.45341514 -471.8984375 463.0546875 C-477.92758058 493.34599302 -480.33458697 523.3807463 -480.25 554.25 C-480.24837544 555.60977159 -480.24687095 556.96954333 -480.2454834 558.32931519 C-480.21448993 577.81779479 -479.64665897 596.93025591 -476.9375 616.25 C-476.64236169 618.60650012 -476.34943846 620.9632786 -476.05859375 623.3203125 C-469.11587336 677.51581091 -452.26770989 729.45914391 -427.9375 778.25 C-427.43814941 779.25272949 -426.93879883 780.25545898 -426.42431641 781.28857422 C-419.66027385 794.77919152 -412.29548873 807.68483757 -403.9375 820.25 C-403.25155762 821.28713135 -403.25155762 821.28713135 -402.55175781 822.34521484 C-392.8611529 836.92995895 -382.20788634 850.85204073 -370.9375 864.25 C-370.49083984 864.78157715 -370.04417969 865.3131543 -369.58398438 865.86083984 C-358.50556122 879.01178263 -346.82486771 891.45230923 -334.6875 903.625 C-334.1678064 904.14737244 -333.64811279 904.66974487 -333.1126709 905.20794678 C-327.23496122 911.10861083 -321.29197856 916.85826798 -314.9375 922.25 C-313.85410731 923.19896878 -312.77202643 924.14943776 -311.69140625 925.1015625 C-302.74871147 932.90207426 -293.46136899 940.17410877 -283.9375 947.25 C-283.19951172 947.79833496 -282.46152344 948.34666992 -281.70117188 948.91162109 C-265.73369232 960.72075834 -249.19768955 971.43143878 -231.9375 981.25 C-231.1434375 981.70455566 -230.349375 982.15911133 -229.53125 982.62744141 C-182.73700091 1009.26908908 -129.96830062 1029.34823802 -76.4375 1036.75 C-75.57930664 1036.87036621 -74.72111328 1036.99073242 -73.83691406 1037.11474609 C-65.8051764 1038.20129373 -57.75038272 1039.05620801 -49.6875 1039.875 C-48.48158203 1039.99810547 -47.27566406 1040.12121094 -46.03320312 1040.24804688 C3.31422853 1045.07870406 52.71490945 1042.38722642 101.0625 1031.25 C102.96713691 1030.83321165 104.87207073 1030.41777704 106.77734375 1030.00390625 C119.45602747 1027.18808586 131.7724498 1023.43074488 144.0625 1019.25 C145.16045898 1018.87713867 146.25841797 1018.50427734 147.38964844 1018.12011719 C163.6263835 1012.56196497 179.47607807 1006.43339912 195.0625 999.25 C196.06877441 998.78867676 197.07504883 998.32735352 198.11181641 997.85205078 C239.29429733 978.85909964 278.18428135 953.96821436 311.74609375 923.34765625 C313.73774817 921.54408387 315.76271857 919.79893904 317.8125 918.0625 C323.6675546 912.97375111 329.03668053 907.35207533 334.48876953 901.84033203 C337.58759334 898.70881818 340.70474029 895.59876575 343.859375 892.5234375 C349.54337428 886.96373089 354.85087192 881.30879786 359.80078125 875.0703125 C361.79423041 872.58452616 363.85108044 870.17131138 365.94287109 867.76831055 C372.63389643 860.04560305 378.57079221 851.84444578 384.46142578 843.50244141 C385.96499298 841.38717594 387.49110487 839.29082364 389.02734375 837.19921875 C446.91620609 757.83153871 476.8694457 654.36934992 472.0625 491.25 C471.8635151 489.90516296 471.66546805 488.56018689 471.46826172 487.21508789 C462.22273735 424.52246087 443.25999546 363.12939431 411.0625 308.25 C410.26658447 306.8885083 410.26658447 306.8885083 409.45458984 305.49951172 C401.29147854 291.61963253 392.53553418 278.26883773 383.0625 265.25 C382.26948486 264.15751953 382.26948486 264.15751953 381.46044922 263.04296875 C375.16520556 254.40994266 368.58065604 246.12024484 361.57714844 238.05175781 C360.46534285 236.72920377 359.38419474 235.38071928 358.32128906 234.01855469 C351.64060024 225.53712384 344.1087408 217.992564 336.46142578 210.38818359 C334.19199982 208.12947856 331.93346726 205.86027674 329.67578125 203.58984375 C322.79657614 196.70469341 315.94771103 189.99065504 308.26953125 183.99169922 C306.06256181 182.25004878 303.99840562 180.41102158 301.9375 178.5 C263.69615052 144.20526666 216.48143069 119.11840983 169.0625 100.25 C168.17723633 99.89357422 167.29197266 99.53714844 166.37988281 99.16992188 C151.43027563 93.19506844 135.89514764 88.84670374 120.47143555 84.28393555 C118.23910125 83.60686502 116.01780464 82.89198907 113.81103516 82.13574219 C110.71230611 81.13714661 107.99770335 80.94335984 104.75 80.8125 C99.83211713 80.50025347 95.79487245 79.71180628 91.19921875 78.00390625 C87.2490663 76.61015959 83.18127372 75.96195192 79.0625 75.25 C77.81855469 75.02441406 76.57460938 74.79882812 75.29296875 74.56640625 C70.23163765 73.68139968 65.1520415 72.95223969 60.0625 72.25 C59.06847168 72.10884766 58.07444336 71.96769531 57.05029297 71.82226562 C12.04609391 65.71203494 -36.32598534 66.93818551 -80.9375 75.25 Z " fill="#0582D5" transform="translate(626.9375,58.75)"/>
<path d="M0 0 C0.84175781 0.18224121 1.68351563 0.36448242 2.55078125 0.55224609 C12.76774855 2.81700718 22.53746242 5.44304111 32 10 C32.59167969 10.27682617 33.18335938 10.55365234 33.79296875 10.83886719 C49.51691034 18.21444831 63.56559367 26.92695404 76.44970703 38.60546875 C77.87199916 39.88485972 79.32340623 41.13168916 80.77734375 42.375 C86.95400452 47.70463024 92.02054104 53.55133671 97 60 C98.09441406 61.37091797 98.09441406 61.37091797 99.2109375 62.76953125 C115.13775692 83.19497861 128.11391736 109.02525621 131 135 C131.33 135.33 131.66 135.66 132 136 C133.84790077 146.02961697 134.35630171 155.99909243 134.3125 166.1875 C134.31100952 166.85709747 134.30951904 167.52669495 134.3079834 168.21658325 C134.24478034 184.11333138 132.08648086 199.05897123 127.96875 214.3828125 C127.0798955 217.70168051 126.28305349 221.02999978 125.5 224.375 C124.36217536 228.93244896 122.85801265 233.17504794 121.03515625 237.5 C119.93352947 240.1605326 118.96127902 242.84830041 118 245.5625 C115.03234058 253.77798958 111.27066126 261.61436699 107.54956055 269.50878906 C106.19401327 272.39338755 104.88900956 275.26978207 103.67578125 278.21875 C88.23802298 314.50533508 63.90585196 348.02415529 41.875 380.5 C41.46236908 381.10838715 41.04973816 381.71677429 40.62460327 382.34359741 C34.31430108 391.64237578 27.93068743 400.88546213 21.4609375 410.07421875 C18.28351972 414.58732542 15.13755133 419.12178219 11.99389648 423.65844727 C5.96482648 432.35596948 -0.12209841 441.00329259 -6.34130859 449.56591797 C-10.49962401 455.29282295 -14.59279982 461.06317783 -18.66601562 466.85083008 C-23.41061209 473.59118214 -28.19995993 480.29905911 -33 487 C-36.2018501 485.63482688 -37.84562544 484.26189802 -39.84765625 481.4296875 C-40.36457031 480.70652344 -40.88148438 479.98335937 -41.4140625 479.23828125 C-41.95804688 478.45839844 -42.50203125 477.67851563 -43.0625 476.875 C-43.92294922 475.66263672 -43.92294922 475.66263672 -44.80078125 474.42578125 C-48.87130831 468.67120871 -52.86517392 462.86367353 -56.83642578 457.0402832 C-60.82032106 451.21374663 -64.9459066 445.49556632 -69.09155273 439.78344727 C-74.29764806 432.60610449 -79.41176123 425.36625514 -84.51171875 418.11328125 C-86.01464118 415.97921029 -87.52219873 413.84849074 -89.03125 411.71875 C-89.79296509 410.64282593 -89.79296509 410.64282593 -90.57006836 409.54516602 C-91.50501468 408.22480096 -92.44061999 406.90490202 -93.37719727 405.58569336 C-102.66054651 392.46165527 -111.62760262 379.13276498 -120.4375 365.6875 C-120.94023437 364.92075958 -121.44296875 364.15401917 -121.9609375 363.36404419 C-125.31453103 358.24740685 -128.66038681 353.12577197 -132 348 C-132.65242676 346.99904297 -133.30485352 345.99808594 -133.97705078 344.96679688 C-142.85323502 331.29175334 -150.9786789 317.18972574 -159 303 C-159.82081055 301.55439697 -159.82081055 301.55439697 -160.65820312 300.07958984 C-180.08679958 265.73045726 -195.35865336 229.22899496 -201 190 C-201.19335938 188.75476563 -201.38671875 187.50953125 -201.5859375 186.2265625 C-206.82850357 142.2743516 -194.0047345 96.91583243 -167 62 C-138.95697457 27.22798425 -100.15176677 3.01850976 -55.37573242 -2.22631836 C-36.83128017 -4.07942828 -18.24228456 -3.99720647 0 0 Z " fill="#0482D5" transform="translate(627,477)"/>
<path d="M0 0 C1.26765701 -0.00979385 2.53531403 -0.01958771 3.84138489 -0.02967834 C7.90862005 -0.05466677 11.97567063 -0.06835674 16.04296875 -0.07421875 C16.7357769 -0.07536934 17.42858505 -0.07651993 18.14238739 -0.07770538 C39.43097376 -0.10226076 60.22948627 0.36548222 81.23046875 4.23828125 C82.37177246 4.43663574 83.51307617 4.63499023 84.68896484 4.83935547 C114.80868249 10.18310777 144.30387585 19.85542239 172.23046875 32.23828125 C173.10396973 32.62193848 173.9774707 33.0055957 174.87744141 33.40087891 C187.8194057 39.13683845 200.09040636 45.97354293 212.23046875 53.23828125 C213.05611328 53.73231445 213.88175781 54.22634766 214.73242188 54.73535156 C226.50202619 61.83931592 237.46894242 69.69480203 248.23046875 78.23828125 C249.15085937 78.95628906 250.07125 79.67429687 251.01953125 80.4140625 C253.44927431 82.32540761 255.84260155 84.27492377 258.23046875 86.23828125 C259.63425781 87.36363281 259.63425781 87.36363281 261.06640625 88.51171875 C269.53902893 95.44170705 277.29351603 103.08565518 285.04296875 110.80078125 C285.57858429 111.3312204 286.11419983 111.86165955 286.66604614 112.40817261 C293.67055219 119.35930435 300.09488633 126.49933159 306.23046875 134.23828125 C307.68525672 135.99122965 309.14320019 137.74156811 310.60546875 139.48828125 C324.58422469 156.6031407 336.4071567 175.00576308 347.23046875 194.23828125 C347.80667969 195.25075928 347.80667969 195.25075928 348.39453125 196.28369141 C349.41235303 198.07540556 350.41569403 199.87532404 351.41796875 201.67578125 C351.96839844 202.66449219 352.51882813 203.65320313 353.0859375 204.671875 C354.23046875 207.23828125 354.23046875 207.23828125 354.23046875 211.23828125 C354.89046875 211.23828125 355.55046875 211.23828125 356.23046875 211.23828125 C395.65796178 296.96989261 395.65796178 296.96989261 389.23046875 322.23828125 C386.22933766 327.78454117 382.05624854 330.15819924 376.23046875 332.23828125 C373.45572412 332.93288217 370.66459267 333.40109047 367.83984375 333.84375 C367.05458313 333.97268143 366.26932251 334.10161285 365.46026611 334.23445129 C363.80707407 334.50344515 362.15314082 334.76791906 360.49853516 335.02807617 C357.99928357 335.42280962 355.50366091 335.83630651 353.0078125 336.25195312 C331.32608092 339.78367266 331.32608092 339.78367266 326.35253906 337.30078125 C320.66434123 332.91734162 318.93777133 327.85350835 317.98046875 320.98828125 C315.40587722 304.68854045 310.209151 288.87319671 305.04296875 273.23828125 C304.72239502 272.26624756 304.40182129 271.29421387 304.0715332 270.29272461 C302.09760708 264.44426204 299.84576802 258.82741462 297.23046875 253.23828125 C296.82868408 252.37025879 296.42689941 251.50223633 296.01293945 250.60791016 C276.18788912 208.03457469 248.11901205 166.85229935 210.23046875 138.23828125 C208.94919185 137.23085461 207.66936631 136.22158065 206.390625 135.2109375 C184.34413465 117.90257596 160.20276618 104.12890185 134.40722656 93.16552734 C132.44162097 92.32822698 130.48806462 91.4679184 128.53515625 90.6015625 C117.75010657 86.00524938 106.50415004 83.05604643 95.19604492 80.03735352 C93.26552243 79.51717568 91.33832727 78.98443369 89.4152832 78.43725586 C65.90531954 71.77780811 41.42358991 70.06983411 17.10546875 70.05078125 C16.35639252 70.0496936 15.60731628 70.04860596 14.83554077 70.04748535 C5.91864241 70.04895398 -2.88757282 70.39636899 -11.76953125 71.23828125 C-23.17594799 71.95264616 -23.17594799 71.95264616 -28.39453125 69.61328125 C-33.36200532 64.64580718 -34.28973148 59.43505287 -34.83203125 52.73828125 C-34.90728027 51.92311035 -34.9825293 51.10793945 -35.06005859 50.26806641 C-35.22065396 48.5154246 -35.37608779 46.76230361 -35.52685547 45.00878906 C-35.777866 42.14312755 -36.05423358 39.28076693 -36.3359375 36.41796875 C-36.52268656 34.48312603 -36.70889576 32.54823112 -36.89453125 30.61328125 C-36.98226807 29.71416016 -37.07000488 28.81503906 -37.16040039 27.88867188 C-38.5477941 12.82474014 -38.5477941 12.82474014 -36.14453125 7.92578125 C-31.54857371 2.72509246 -28.31341401 1.08120393 -21.40356445 0.64770508 C-14.26813613 0.21392386 -7.14736141 0.04593204 0 0 Z " fill="#0582D5" transform="translate(600.76953125,216.76171875)"/>
<path d="M0 0 C26.58757507 -1.01805064 51.29385611 6.40390623 71.69287109 24.09863281 C72.49080078 24.74058594 73.28873047 25.38253906 74.11083984 26.04394531 C92.27752994 41.2358038 106.37343163 65.86108172 108.54272461 89.63818359 C110.55978008 122.69165513 104.63071242 151.38425788 82.69287109 177.09863281 C82.07798828 177.85917969 81.46310547 178.61972656 80.82958984 179.40332031 C73.59693637 188.05854538 64.35710448 194.40400927 54.69287109 200.09863281 C53.97099609 200.57558594 53.24912109 201.05253906 52.50537109 201.54394531 C48.84744724 203.56596433 45.09630768 204.81129583 41.13037109 206.09863281 C40.39496094 206.34613281 39.65955078 206.59363281 38.90185547 206.84863281 C36.5090535 207.6373332 34.10691294 208.37754635 31.69287109 209.09863281 C30.76982178 209.37658691 29.84677246 209.65454102 28.89575195 209.94091797 C21.31303008 212.04559693 14.22901202 212.57060574 6.38037109 212.47363281 C5.19556152 212.46420654 4.01075195 212.45478027 2.79003906 212.44506836 C-10.8928346 212.20967417 -22.72849013 209.6116886 -35.30712891 204.09863281 C-36.26876953 203.69128906 -37.23041016 203.28394531 -38.22119141 202.86425781 C-64.95799211 190.61289361 -82.41914861 167.25188112 -93.29541016 140.68457031 C-94.09046414 138.50734557 -94.71798408 136.3403474 -95.30712891 134.09863281 C-95.58427734 133.1434375 -95.86142578 132.18824219 -96.14697266 131.20410156 C-102.95728945 103.74314673 -97.770543 76.34416026 -84.54931641 51.84082031 C-71.08757263 29.86374094 -50.16926038 11.67496282 -25.30712891 4.09863281 C-23.96908203 3.669375 -23.96908203 3.669375 -22.60400391 3.23144531 C-15.05336629 0.96625403 -7.84469809 0.33537122 0 0 Z " fill="#FCFCFC" transform="translate(587.30712890625,540.9013671875)"/>
<path d="M0 0 C1.02391342 -0.01263634 1.02391342 -0.01263634 2.06851196 -0.02552795 C4.31023607 -0.04531501 6.55117129 -0.04519873 8.79296875 -0.0390625 C9.56689972 -0.03818634 10.34083069 -0.03731018 11.13821411 -0.03640747 C67.60268482 0.17286771 120.60282094 17.99214104 165.98046875 51.3359375 C166.56280273 51.75842773 167.14513672 52.18091797 167.74511719 52.61621094 C177.17914662 59.48285641 185.60658543 67.23593426 193.98046875 75.3359375 C194.53686035 75.87041504 195.09325195 76.40489258 195.66650391 76.95556641 C202.63990306 83.67592416 209.01717114 90.69149748 214.98046875 98.3359375 C216.16382813 99.81126953 216.16382813 99.81126953 217.37109375 101.31640625 C241.39304523 131.52683831 270.14441625 178.84761561 269.296875 218.8515625 C268.82624838 222.54685303 267.48583702 224.62743127 264.98046875 227.3359375 C261.55887487 229.67323621 258.64397143 230.84619306 254.5859375 231.6171875 C253.55533203 231.81803955 252.52472656 232.0188916 251.46289062 232.22583008 C250.37556641 232.42716553 249.28824219 232.62850098 248.16796875 232.8359375 C247.05099609 233.04951904 245.93402344 233.26310059 244.78320312 233.4831543 C242.54680075 233.90981935 240.30966528 234.33266151 238.07177734 234.75146484 C235.40763247 235.2551738 232.75005071 235.7809999 230.09375 236.32421875 C212.95965602 239.79742559 212.95965602 239.79742559 206.66796875 236.7109375 C201.48604813 232.13156579 199.47279304 227.4371006 198.23046875 220.7734375 C190.60436918 184.8784491 170.04040584 153.46112165 144.98046875 127.3359375 C144.19800781 126.51222656 143.41554688 125.68851562 142.609375 124.83984375 C123.32624357 105.00674779 99.60758842 91.23863466 73.98046875 81.3359375 C72.78679687 80.86414063 71.593125 80.39234375 70.36328125 79.90625 C62.34760885 76.97989341 54.21680187 75.22670331 45.85546875 73.5859375 C44.78288818 73.37493408 43.71030762 73.16393066 42.60522461 72.9465332 C32.68600028 71.09942159 22.87903025 70.34437662 12.796875 70.1953125 C11.60255859 70.17597656 10.40824219 70.15664063 9.17773438 70.13671875 C6.72738487 70.10248496 4.27675916 70.08460675 1.82617188 70.08203125 C-8.15724708 69.87573983 -8.15724708 69.87573983 -11.7421875 67.1015625 C-15.3623681 62.70518537 -16.26191303 58.86095747 -16.65234375 53.2421875 C-16.73677734 52.05641113 -16.82121094 50.87063477 -16.90820312 49.64892578 C-16.98619141 48.39063965 -17.06417969 47.13235352 -17.14453125 45.8359375 C-17.22509766 44.5454248 -17.30566406 43.25491211 -17.38867188 41.92529297 C-17.61646267 38.06289907 -17.82223042 34.19999846 -18.01953125 30.3359375 C-18.07979492 29.24700195 -18.14005859 28.15806641 -18.20214844 27.03613281 C-18.34650776 24.17745037 -18.44387886 21.3221629 -18.51953125 18.4609375 C-18.56223145 17.63142578 -18.60493164 16.80191406 -18.64892578 15.94726562 C-18.71049629 10.55145044 -17.42578225 7.7296499 -13.80273438 3.74169922 C-9.49733494 0.34760147 -5.35834976 0.06494123 0 0 Z " fill="#0582D4" transform="translate(597.01953125,336.6640625)"/>
<path d="M0 0 C0.33 0 0.66 0 1 0 C1.02685095 2.47923801 1.04676547 4.9581884 1.0625 7.4375 C1.07087891 8.14455078 1.07925781 8.85160156 1.08789062 9.58007812 C1.09653588 11.38693559 1.05220011 13.19387603 1 15 C0.67 15.33 0.34 15.66 0 16 C-0.39993686 18.68862664 -0.75134543 21.36352217 -1.0625 24.0625 C-1.15337891 24.82111328 -1.24425781 25.57972656 -1.33789062 26.36132812 C-1.5624374 28.2404301 -1.78170978 30.12016095 -2 32 C-2.33 32 -2.66 32 -3 32 C-1.48387097 2.96774194 -1.48387097 2.96774194 0 0 Z " fill="#2D90D5" transform="translate(1103,638)"/>
<path d="M0 0 C0.33 0 0.66 0 1 0 C1.18451025 16.8929385 1.18451025 16.8929385 0 24 C-0.66 24 -1.32 24 -2 24 C-2.29599372 15.7943963 -1.43794854 8.07562173 0 0 Z " fill="#489FDC" transform="translate(89,528)"/>
<path d="M0 0 C0.99 0.33 1.98 0.66 3 1 C1.75645114 2.29787866 0.5048736 3.58806759 -0.75 4.875 C-1.44609375 5.59429688 -2.1421875 6.31359375 -2.859375 7.0546875 C-4.85122217 8.86479679 -6.5427658 9.94848086 -9 11 C-7.59155282 7.78475695 -5.89655214 5.67816132 -3.375 3.25 C-2.74335937 2.63640625 -2.11171875 2.0228125 -1.4609375 1.390625 C-0.73777344 0.70226562 -0.73777344 0.70226562 0 0 Z M-12 12 C-11.34 12.33 -10.68 12.66 -10 13 C-11.98 13.99 -11.98 13.99 -14 15 C-13.34 14.01 -12.68 13.02 -12 12 Z " fill="#258ED6" transform="translate(975,946)"/>
<path d="M0 0 C0.66 0.33 1.32 0.66 2 1 C0.59419724 2.65512248 -0.82506266 4.29882206 -2.25 5.9375 C-3.03890625 6.85402344 -3.8278125 7.77054688 -4.640625 8.71484375 C-6.91251033 10.91526249 -7.92319022 11.66832555 -11 12 C-7.49102731 7.81576108 -3.91939465 3.80411834 0 0 Z " fill="#2A8ED5" transform="translate(480,517)"/>
<path d="M0 0 C1.3778771 3.13153887 0.90076044 4.28779473 -0.25 7.625 C-2 11 -2 11 -5 13 C-4.54554036 11.58208592 -4.08625056 10.16571954 -3.625 8.75 C-3.24214844 7.56664062 -3.24214844 7.56664062 -2.8515625 6.359375 C-2.04826333 4.13372042 -1.10288338 2.09068328 0 0 Z " fill="#278CD6" transform="translate(138,371)"/>
<path d="M0 0 C0.33 0.99 0.66 1.98 1 3 C0.00390625 4.82421875 0.00390625 4.82421875 -1.4375 6.6875 C-1.91058594 7.31011719 -2.38367188 7.93273437 -2.87109375 8.57421875 C-3.24363281 9.04472656 -3.61617187 9.51523437 -4 10 C-4.99 9.34 -5.98 8.68 -7 8 C-4.69 5.36 -2.38 2.72 0 0 Z " fill="#218ED8" transform="translate(987,932)"/>
<path d="M0 0 C0.99 0.33 1.98 0.66 3 1 C2.1875 4.4375 2.1875 4.4375 1 8 C0.01 8.33 -0.98 8.66 -2 9 C-1.34 6.03 -0.68 3.06 0 0 Z " fill="#208AD5" transform="translate(116,423)"/>
<path d="M0 0 C0.99 0.33 1.98 0.66 3 1 C3.1875 3.875 3.1875 3.875 3 7 C2.01 7.66 1.02 8.32 0 9 C0 6.03 0 3.06 0 0 Z " fill="#067CCB" transform="translate(566,255)"/>
<path d="M0 0 C-3.77604154 2.51736102 -6.31005137 3.2628809 -10.8125 2.5625 C-11.534375 2.376875 -12.25625 2.19125 -13 2 C-8.62836676 -0.42868513 -4.86219789 -1.62073263 0 0 Z " fill="#47A4E0" transform="translate(721,1092)"/>
<path d="M0 0 C7.75 0.75 7.75 0.75 10 3 C3.375 3.125 3.375 3.125 0 2 C0 1.34 0 0.68 0 0 Z " fill="#2D93D7" transform="translate(616,542)"/>
<path d="M0 0 C0.99 0.33 1.98 0.66 3 1 C-0.465 3.97 -0.465 3.97 -4 7 C-3.04065919 3.16263678 -2.76390737 2.40339772 0 0 Z " fill="#208CD5" transform="translate(956,965)"/>
<path d="M0 0 C0 3.90838866 -1.50567876 5.11594107 -4 8 C-4.99 7.67 -5.98 7.34 -7 7 C-4.69 4.69 -2.38 2.38 0 0 Z " fill="#DFF1FA" transform="translate(1005,1009)"/>
<path d="M0 0 C0.66 0.66 1.32 1.32 2 2 C-0.3125 4.0625 -0.3125 4.0625 -3 6 C-3.99 5.67 -4.98 5.34 -6 5 C-4.02 3.35 -2.04 1.7 0 0 Z " fill="#1A8AD8" transform="translate(935,985)"/>
<path d="M0 0 C0.66 0.33 1.32 0.66 2 1 C0.375 7.75 0.375 7.75 -3 10 C-2.01 6.7 -1.02 3.4 0 0 Z " fill="#CEE8F6" transform="translate(1131,814)"/>
<path d="M0 0 C0.33 0 0.66 0 1 0 C1.39222105 1.41199578 1.76311059 2.82992764 2.125 4.25 C2.33382813 5.03890625 2.54265625 5.8278125 2.7578125 6.640625 C3.04314411 9.4203071 2.44977894 10.65887549 1 13 C0.1276588 10.00519083 -0.10829766 7.36424089 -0.0625 4.25 C-0.05347656 3.45078125 -0.04445313 2.6515625 -0.03515625 1.828125 C-0.02355469 1.22484375 -0.01195312 0.6215625 0 0 Z " fill="#3B98D9" transform="translate(1099,551)"/>
<path d="M0 0 C3.63 1.65 7.26 3.3 11 5 C8 6 8 6 4.375 4.75 C1 3 1 3 0 0 Z " fill="#1789D6" transform="translate(869,118)"/>
</svg>
