<?xml version="1.0" encoding="UTF-8"?>
<svg id="uuid-381a6ed0-151d-4a5e-8c3b-a44ef18e9f79" data-name="Laag 1" xmlns="http://www.w3.org/2000/svg" viewBox="0 0 262.61 451.95">
  <path d="M58.06,49.89C74.18,24.71,98.51,8.15,126.55,3.29c15.87-2.75,31.89-1.71,47.63,3.11,12.99,3.98,25.3,10.41,36.59,19.13,23.33,18.02,38.61,43.24,45.4,74.96,5.05,23.55,5.09,50.63.14,78.32-4.43,24.75-12.45,60.97-30.85,89.59-3.77,5.86-10.02,13.36-19.32,18.11,3.13,5.63,5.11,12.04,5.74,18.98.87,9.48-.88,18-1.94,23.14-.13.61-.25,1.2-.35,1.74-2.78,14.71-8.46,36.74-19.76,58.22-11.95,22.72-27.32,39.51-45.68,49.91-22.35,12.66-48.11,15.07-74.49,7-2.16-.66-4.37-1.41-6.56-2.22-28.71-10.6-48.86-32.4-56.74-61.39-6.99-25.72-4.48-56.21,7.48-90.64,3.32-9.57,6.9-19.52,10.82-26.76,4.35-8.03,10.75-14.53,18.23-19.04-1.28-1.69-2.47-3.47-3.53-5.35-4.35-7.72-5.45-15.38-6.04-19.49-3.6-25.02-6.62-52.11-4.43-80.66,2.61-34,12.15-63.45,29.17-90.03Z" fill="#ec719c"/>
  <path d="M173.15,324.93c-9.22,48.8-39.79,107.95-99.07,86.06-46.37-17.12-41.21-68.57-27.92-106.84,2.07-5.96,5.62-16.18,8.5-21.5,2.42-4.46,8.39-8.22,13.57-7.27,8.55,1.57,17.65,4.96,26.18,7.11,18.81,4.73,37.73,9.22,56.55,14.06,5.59,1.44,13.8,2.42,18.81,4.92,8.27,4.13,4.73,16.29,3.38,23.46Z" fill="#e7f1fb"/>
  <path d="M68.64,215.5c-7.32-50.96-9.6-100.97,19.47-146.37,23.18-36.21,67.23-41.34,100.85-15.36,35.81,27.66,39.65,77.29,32.23,118.75-4.52,25.24-11.76,54.83-25.74,76.58-6.58,10.23-12.23,5.81-21.69,3.36-27.39-7.08-54.9-13.94-82.3-21.01-6.87-1.77-17.22-2.17-21.02-8.9-1.07-1.9-1.49-4.86-1.81-7.04Z" fill="#e7f1fb"/>
  <path d="M165.68,356.7c4.6-4.13-51.43,18.22-74.74-77.94,0,0-32.7-8.05-35.09-3.39-13.26,25.79-42.05,117.56,19.62,134.42,72.81,19.9,90.21-53.09,90.21-53.09Z" fill="#0a9bd8" opacity=".2"/>
  <path d="M94.7,232.57s-15.03-102.64,25.55-187.34c0,0-46.13,12.38-53.83,76.21-8.02,66.51,4.02,101.1,4.02,101.1l14.16,7.78,10.09,2.24Z" fill="#0a9bd8" opacity=".2"/>
  <g>
    <path d="M187.72,156.27c-3.59-2.36-79.6-34.32-79.6-34.32" fill="#e7f1fb"/>
    <path d="M186.47,160.61c1.86.57,3.93-.14,5.05-1.85,1.37-2.08.75-4.89-1.32-6.25-3.65-2.4-62.4-27.17-80.32-34.71-2.28-.96-4.93.11-5.89,2.4-.96,2.29.11,4.93,2.4,5.89,28.72,12.08,75.55,31.98,78.93,33.97.37.24.75.42,1.15.54Z" fill="#122f40"/>
  </g>
  <g>
    <path d="M187.49,114.76c-2.58-1.81-57.48-24.03-57.48-24.03" fill="#e7f1fb"/>
    <path d="M185.03,118.53c-3.11-1.75-36.38-15.4-56.71-23.63-2.3-.93-3.42-3.56-2.48-5.86.93-2.3,3.55-3.41,5.86-2.48,20.68,8.37,55.76,22.68,58.37,24.51,2.04,1.42,2.53,4.23,1.11,6.27-1.15,1.64-3.19,2.28-5,1.73-.39-.12-.78-.3-1.14-.53ZM185,118.51s-.06-.04-.09-.06c.02.02.05.04.09.06Z" fill="#122f40"/>
  </g>
  <circle cx="131.6" cy="177.62" r="6.38" fill="#122f40"/>
  <circle cx="165.92" cy="195.9" r="6.38" fill="#122f40"/>
  <circle cx="135.74" cy="332.55" r="6.38" fill="#122f40"/>
  <circle cx="83.04" cy="316.41" r="6.38" fill="#122f40"/>
  <circle cx="67.52" cy="363.04" r="6.38" fill="#122f40"/>
  <circle cx="116.43" cy="379.29" r="6.38" fill="#122f40"/>
  <circle cx="97.66" cy="160.56" r="6.38" fill="#122f40"/>
  <path d="M66.52,224.76h0c-1.48-2.62-1.97-6.05-2.34-8.61-6.7-46.62-11.22-100.46,20.13-149.44,11.35-17.73,28.25-29.34,47.57-32.7,20.46-3.55,41.71,2.2,59.83,16.2,17.34,13.39,28.77,32.51,33.98,56.82,4.21,19.63,4.18,42.55-.07,66.29-3.96,22.12-11.01,54.3-26.39,78.22-7.29,11.33-15.2,8.81-22.18,6.6-1.41-.45-2.88-.91-4.42-1.31-13.97-3.61-28.2-7.22-41.97-10.72-13.23-3.36-26.9-6.83-40.33-10.3-1.33-.34-2.87-.64-4.49-.96-2.43-.47-5.08-.99-7.66-1.78-4.65-1.42-9.08-3.74-11.66-8.31ZM179.78,249.55c6.73,2.14,8.33,2.64,11.89-2.89,14.51-22.57,21.27-53.58,25.1-74.94,4.05-22.59,4.09-44.32.13-62.82-4.75-22.17-15.07-39.53-30.68-51.58-16.1-12.43-34.84-17.57-52.79-14.45-16.8,2.92-31.55,13.1-41.52,28.68-26.71,41.71-26.83,87.46-18.8,143.36.23,1.6.61,4.27,1.26,5.42h0c1.97,3.49,7.94,4.65,13.2,5.68,1.76.34,3.43.67,5.02,1.08,13.41,3.46,27.08,6.93,40.29,10.29,13.78,3.5,28.02,7.11,42.01,10.73,1.03.27,2.03.56,2.96.84.67.21,1.32.41,1.93.6Z" fill="#122f40"/>
  <path d="M73.9,414.02c-39.26-14.5-50.42-55.52-30.61-112.54,2.15-6.18,5.74-16.52,8.79-22.16,3.13-5.78,10.84-10.93,18.34-9.55,5.43,1,11.01,2.68,16.41,4.3,3.5,1.05,6.81,2.05,10.06,2.87,7.9,1.99,15.97,3.97,23.77,5.88,10.76,2.64,21.88,5.37,32.81,8.18,1.63.42,3.56.81,5.6,1.22,4.75.96,10.12,2.05,14.1,4.03h0c10.52,5.25,7.85,18.27,6.25,26.05-.16.8-.32,1.56-.46,2.27-2.38,12.61-7.22,31.44-16.72,49.49-9.12,17.34-20.37,29.89-33.45,37.29-14.95,8.46-31.75,9.91-50,4.32-1.62-.49-3.25-1.05-4.89-1.65ZM157.28,301.04c-2.16-.44-4.19-.85-6.05-1.33-10.88-2.8-21.98-5.52-32.71-8.16-7.81-1.92-15.89-3.9-23.82-5.9-3.46-.87-7.02-1.94-10.46-2.98-5.16-1.55-10.5-3.16-15.44-4.07-3.17-.58-7.26,2.15-8.8,4.99-2.7,4.99-6.28,15.29-8.21,20.83-5.4,15.54-11.2,38.43-8.21,59.24,2.98,20.72,14.23,34.82,33.44,41.91,17.55,6.49,33.48,5.79,47.34-2.06,21.4-12.11,38.5-42.25,45.75-80.62.14-.75.31-1.56.48-2.41,1.52-7.39,2.55-14.19-1.45-16.18h0c-2.91-1.45-7.67-2.41-11.87-3.26Z" fill="#122f40"/>
</svg>