<?xml version="1.0" encoding="UTF-8"?>
<svg id="uuid-bdc31caf-9455-408c-86ad-d0dd25c2e699" data-name="Laag 1" xmlns="http://www.w3.org/2000/svg" viewBox="0 0 240.76 451.95">
  <path d="M232.3,76.32c-8.05-28.81-26.46-51.75-51.85-64.62-14.37-7.28-30-10.97-46.46-10.97-13.59,0-27.24,2.55-40.58,7.58-27.59,10.4-49.58,30.05-65.36,58.39-11.72,21.04-19.69,46.93-23.06,74.85-3.01,24.97-5.94,61.95,3.28,94.7,1.89,6.71,5.67,15.71,13.17,22.98-4.64,4.47-8.41,10.02-11.05,16.46-3.6,8.81-4.42,17.47-4.92,22.69-.06.62-.11,1.21-.17,1.76-1.65,14.88-2.66,37.61,1.85,61.45,4.78,25.22,14.56,45.78,29.07,61.1,17.67,18.64,41.59,28.5,69.18,28.5,2.26,0,4.59-.07,6.92-.2,30.55-1.73,56.2-16.68,72.23-42.09,14.22-22.54,20.74-52.44,19.38-88.86-.38-10.12-.88-20.68-2.51-28.76-1.81-8.95-6.02-17.04-11.86-23.55,1.72-1.24,3.37-2.59,4.94-4.09,6.42-6.1,9.72-13.11,11.49-16.87,10.76-22.87,21.59-47.89,27.85-75.83,7.46-33.28,6.95-64.23-1.54-94.62Z" fill="#ec719c"/>
  <path d="M51.84,284.18c5.51-.92,13.66.54,19.42.8,19.42.88,38.83,2.13,58.19,3.11,8.79.44,18.48-.13,27.12.87,5.23.61,9.84,5.95,10.84,10.92,1.2,5.92,1.6,16.74,1.83,23.04,1.51,40.49-8.62,91.19-57.97,93.99-63.09,3.58-75-61.93-69.54-111.29.8-7.25.98-19.92,10.1-21.44Z" fill="#e7f1fb"/>
  <path d="M169.92,237.78c-5.6,5.32-15.61,2.68-22.7,2.36-28.27-1.26-56.58-2.75-84.85-4-9.76-.43-16.46,2.14-19.75-9.57-7.01-24.89-5.26-55.31-2.2-80.76,5.04-41.82,23.25-88.15,65.58-104.11,39.76-14.99,80.37,2.81,91.94,44.21,14.5,51.92-2.31,99.07-24.23,145.66-.94,1.99-2.21,4.7-3.79,6.21Z" fill="#e7f1fb"/>
  <path d="M39.59,338.19c-3.19-5.29,43.85,32.48,94.28-52.65,0,0,33.62,1.88,34.55,7.03,5.12,28.54,5.8,124.72-58.11,122.79-75.45-2.29-70.72-77.18-70.72-77.18Z" fill="#0a9bd8" opacity=".2"/>
  <path d="M143.8,240.27s44.42-93.74,30.41-186.61c0,0,40.49,25.34,29.16,88.63-11.8,65.94-33.44,95.5-33.44,95.5l-15.82,3.3-10.3-.81Z" fill="#0a9bd8" opacity=".2"/>
  <g>
    <path d="M77.18,140.08c4.12-1.2,86.16-9.52,86.16-9.52" fill="#e7f1fb"/>
    <path d="M77.11,144.6c-1.94,0-3.71-1.28-4.29-3.25-.7-2.39.71-4.9,3.1-5.59,4.19-1.22,67.62-7.71,86.96-9.67,2.46-.25,4.68,1.55,4.93,4.02.25,2.47-1.55,4.68-4.02,4.93-31,3.14-81.6,8.47-85.42,9.38-.42.12-.84.18-1.26.18Z" fill="#122f40"/>
  </g>
  <g>
    <path d="M89.55,100.46c3-.97,62-6.15,62-6.15" fill="#e7f1fb"/>
    <path d="M89.55,104.96c-1.9,0-3.66-1.21-4.28-3.11-.77-2.36.53-4.9,2.89-5.67,3.03-.98,40.77-4.4,62.99-6.35,2.48-.21,4.66,1.61,4.88,4.09.22,2.48-1.61,4.66-4.09,4.88-21.85,1.92-57.66,5.23-61.14,5.99-.41.12-.83.18-1.25.18ZM90.94,104.74s-.07.02-.1.03c.04-.01.07-.02.1-.03Z" fill="#122f40"/>
  </g>
  <circle cx="124.6" cy="176.92" r="6.38" fill="#122f40"/>
  <circle cx="86.43" cy="184.36" r="6.38" fill="#122f40"/>
  <circle cx="75.28" cy="323.85" r="6.38" fill="#122f40"/>
  <circle cx="130.4" cy="323.85" r="6.38" fill="#122f40"/>
  <circle cx="131.58" cy="372.98" r="6.38" fill="#122f40"/>
  <circle cx="80.06" cy="374.2" r="6.38" fill="#122f40"/>
  <circle cx="162.04" cy="170.54" r="6.38" fill="#122f40"/>
  <path d="M159.44,245.58c-2.7,0-5.38-.28-7.84-.54-1.65-.17-3.21-.34-4.58-.4-13.86-.62-27.95-1.3-41.58-1.96-14.19-.69-28.86-1.4-43.27-2.04-1.59-.07-3.13-.05-4.61-.04-7.32.07-15.63.16-19.28-12.8-7.7-27.38-5.02-60.21-2.33-82.52,2.88-23.94,9.57-45.86,19.34-63.4,12.1-21.72,28.62-36.65,49.12-44.38,21.42-8.08,43.42-7.36,61.95,2.03,17.49,8.86,30.25,24.91,35.91,45.19,15.65,56.01-4.44,106.17-24.49,148.78-1.1,2.34-2.58,5.48-4.76,7.55h0c-3.81,3.62-8.72,4.53-13.58,4.53ZM59.49,231.59c.98,0,2.01.01,3.08.06,14.43.64,29.11,1.35,43.31,2.04,13.62.66,27.7,1.35,41.54,1.96,1.64.07,3.33.25,5.12.44,5.33.56,11.38,1.2,14.28-1.56h0c.96-.91,2.11-3.35,2.79-4.81,24.05-51.1,37.32-94.87,23.99-142.58-4.98-17.82-16.1-31.88-31.31-39.58-16.25-8.23-35.67-8.81-54.71-1.63-18.45,6.96-33.4,20.53-44.43,40.34-9.21,16.53-15.52,37.31-18.27,60.1-2.6,21.55-5.21,53.18,2.06,79,1.78,6.33,3.46,6.31,10.52,6.24.64,0,1.32-.01,2.02-.01Z" fill="#122f40"/>
  <path d="M105.41,420c-19.09,0-34.73-6.3-46.55-18.77-10.33-10.9-17.42-26.2-21.07-45.45-3.79-20.05-2.91-39.46-1.5-52.22.08-.72.15-1.49.23-2.31.75-7.91,2-21.14,13.6-23.08h0c4.38-.73,9.84-.2,14.66.27,2.07.2,4.03.39,5.71.47,11.27.51,22.71,1.16,33.77,1.78,8.02.45,16.31.92,24.45,1.33,3.35.17,6.8.19,10.46.2,5.63.03,11.46.05,16.95.69,7.57.88,13.44,8.06,14.74,14.5,1.27,6.28,1.68,17.22,1.92,23.76,2.25,60.33-20.43,96.28-62.21,98.65-1.74.1-3.46.15-5.15.15ZM51.61,287.06h0c-4.41.74-5.41,7.54-6.12,15.05-.08.86-.16,1.69-.24,2.45-4.3,38.81,3.24,72.64,20.15,90.48,10.96,11.56,25.98,16.89,44.66,15.82,20.44-1.16,35.33-11.35,44.24-30.29,8.95-19.02,10.1-42.61,9.49-59.04-.22-5.86-.62-16.75-1.75-22.32-.64-3.16-3.75-6.97-6.95-7.34-4.99-.58-10.57-.6-15.96-.63-3.6-.02-7.31-.04-10.87-.21-8.17-.41-16.47-.88-24.5-1.33-11.04-.62-22.45-1.26-33.67-1.78-1.92-.09-3.98-.29-6.17-.5-4.26-.42-9.1-.89-12.3-.35Z" fill="#122f40"/>
</svg>