<svg xmlns="http://www.w3.org/2000/svg" viewBox="0 0 128 128">
  <defs>
    <linearGradient id="strap" x1="48" x2="80" y1="12" y2="116" gradientUnits="userSpaceOnUse">
      <stop stop-color="#83c7d8"/>
      <stop offset="1" stop-color="#2b6f82"/>
    </linearGradient>
    <linearGradient id="body" x1="38" x2="90" y1="28" y2="100" gradientUnits="userSpaceOnUse">
      <stop stop-color="#ffffff"/>
      <stop offset="1" stop-color="#dceff4"/>
    </linearGradient>
  </defs>
  <rect x="48" y="8" width="32" height="20" rx="10" fill="url(#strap)"/>
  <rect x="48" y="100" width="32" height="20" rx="10" fill="url(#strap)"/>
  <rect x="34" y="24" width="60" height="80" rx="18" fill="url(#body)"/>
  <rect x="40" y="30" width="48" height="68" rx="14" fill="#245f73"/>
  <path fill="#9fe3f0" d="M64 43c8.3 0 15 6.7 15 15c0 11.2-15 27.2-15 27.2S49 69.2 49 58c0-8.3 6.7-15 15-15m0 20a5 5 0 1 0 0-10a5 5 0 0 0 0 10"/>
</svg>
